<?xml version="1.0" encoding="UTF-8"?>
<svg version="1.1" xmlns="http://www.w3.org/2000/svg" width="334" height="297">
<path d="M0 0 C110.22 0 220.44 0 334 0 C334 98.01 334 196.02 334 297 C223.78 297 113.56 297 0 297 C0 198.99 0 100.98 0 0 Z " fill="#FEFEFD" transform="translate(0,0)"/>
<path d="M0 0 C11.89779369 5.76794181 21.36817321 13.38332327 28 25 C28 25.66 28 26.32 28 27 C30.51009794 24.67778364 32.28307222 22.18646269 34.125 19.3125 C35.05748601 17.85810017 36.00905294 16.41521481 37 15 C37.33 15 37.66 15 38 15 C38.44295303 19.87248333 37.66228319 23.21900524 35.9375 27.8125 C33.40319959 35.12679764 34.00911076 40.11794476 35.90234375 47.53515625 C39.68181541 62.52196296 40.27826902 77.61774168 41 93 C42.56959473 93.03758423 42.56959473 93.03758423 44.17089844 93.07592773 C79.02763698 93.9181797 79.02763698 93.9181797 91.25 94.4375 C92.03858398 94.46448975 92.82716797 94.49147949 93.63964844 94.51928711 C98.76471098 94.76471098 98.76471098 94.76471098 101 97 C95.69702226 98.03731072 90.46022583 98.32359152 85.07592773 98.55200195 C84.11012755 98.59404157 83.14432737 98.63608118 82.14926052 98.67939472 C71.36202462 99.11461476 60.5797337 99.16407504 49.78515625 99.16796875 C47.62967407 99.17119721 45.47419209 99.17456234 43.31871033 99.17805481 C38.83885186 99.18398162 34.35901249 99.18590128 29.87915039 99.18530273 C24.20748102 99.18520108 18.5359367 99.1988865 12.86429691 99.21607494 C8.4241024 99.22731909 3.98393706 99.22921824 -0.45627022 99.22869301 C-2.54453528 99.22985325 -4.6328016 99.23416111 -6.72105217 99.24202538 C-21.2500222 99.29166088 -35.54699336 98.49390563 -50 97 C-50 96.67 -50 96.34 -50 96 C-43.46018904 94.87700216 -36.93678468 94.66035346 -30.3125 94.4375 C-29.10110352 94.3950415 -27.88970703 94.35258301 -26.64160156 94.30883789 C-13.42719532 93.88621499 -0.21990642 93.90132132 13 94 C13.185625 92.2675 13.185625 92.2675 13.375 90.5 C13.99538924 85.5368861 15.23981303 80.82040381 16.5390625 76 C21.69586916 56.29638052 20.45162287 35.45285707 10.98046875 17.37890625 C8.46651192 13.0898083 5.64903152 9.13108884 2.6015625 5.20703125 C1 3 1 3 0 0 Z " fill="#91580C" transform="translate(147,48)"/>
<path d="M0 0 C7.09111977 5.1180426 12.45132075 12.38974259 15.31640625 20.671875 C14.98640625 21.331875 14.65640625 21.991875 14.31640625 22.671875 C13.79433594 22.28515625 13.27226562 21.8984375 12.734375 21.5 C4.58414247 15.7334607 -3.70830321 12.42472712 -13.68359375 11.671875 C-13.68359375 12.331875 -13.68359375 12.991875 -13.68359375 13.671875 C-12.71421875 13.89875 -11.74484375 14.125625 -10.74609375 14.359375 C1.33020479 17.89981594 10.75185276 26.91758234 18.31640625 36.671875 C18.31640625 37.331875 18.31640625 37.991875 18.31640625 38.671875 C-15.21293387 41.60569226 -15.21293387 41.60569226 -26.68359375 32.671875 C-29.63595563 29.97554843 -32.44267191 27.1468165 -35.24609375 24.296875 C-35.98794922 23.554375 -36.72980469 22.811875 -37.49414062 22.046875 C-41.44290086 18.06646843 -45.1306213 14.00537743 -48.68359375 9.671875 C-49.99903238 8.32088397 -51.32534493 6.97981831 -52.68359375 5.671875 C-51.48476562 5.52492188 -51.48476562 5.52492188 -50.26171875 5.375 C-41.63799207 4.20087759 -33.56748022 2.25903844 -25.578125 -1.25390625 C-17.03000473 -4.97277919 -8.10855517 -4.63346009 0 0 Z " fill="#FC9250" transform="translate(143.68359375,57.328125)"/>
<path d="M0 0 C2.97 0 5.94 0 9 0 C13.95 12.54 18.9 25.08 24 38 C26.2649294 34.60260589 27.70261855 31.06924021 29.22265625 27.3046875 C29.52819931 26.55663849 29.83374237 25.80858948 30.14854431 25.03787231 C31.1229966 22.65151129 32.09314409 20.26343531 33.0625 17.875 C34.03570077 15.47953958 35.00986977 13.08449646 35.98716736 10.69070435 C36.59507341 9.20153603 37.20057434 7.71138328 37.80348206 6.22018433 C39.88753066 1.11246934 39.88753066 1.11246934 41 0 C43.64 0 46.28 0 49 0 C49 16.5 49 33 49 50 C47.02 50 45.04 50 43 50 C42.67 37.79 42.34 25.58 42 13 C37.05 25.21 32.1 37.42 27 50 C25.35 50 23.7 50 22 50 C17.05 37.79 12.1 25.58 7 13 C7.03960217 24.80263503 7.03960217 24.80263503 7.09008789 36.60522461 C7.09300709 38.07926359 7.09555564 39.55330337 7.09765625 41.02734375 C7.10277222 41.79953247 7.10788818 42.57172119 7.11315918 43.36730957 C7.11346974 45.24525187 7.06233569 47.12309253 7 49 C6.505 49.495 6.505 49.495 6 50 C4.02 50 2.04 50 0 50 C0 33.5 0 17 0 0 Z " fill="#0E0E0E" transform="translate(54,197)"/>
<path d="M0 0 C0.18175781 0.95519531 0.36351562 1.91039062 0.55078125 2.89453125 C0.80214844 4.18746094 1.05351562 5.48039063 1.3125 6.8125 C1.44567627 7.49812012 1.57885254 8.18374023 1.71606445 8.89013672 C2.51194811 12.88214366 3.4769764 16.7340313 4.6875 20.625 C8.31694851 34.43706795 5.21784011 41.6936086 -1.73071289 53.8371582 C-3.13585585 56.23622857 -4.55647401 58.62387688 -6 61 C-7.485 60.505 -7.485 60.505 -9 60 C-9.92109607 57.60638245 -10.59500955 55.4160273 -11.1875 52.9375 C-11.3618457 52.23173828 -11.53619141 51.52597656 -11.71582031 50.79882812 C-13.43379569 43.19401344 -13.37091793 35.74806351 -13 28 C-15.69584531 33.44228289 -16.5064408 37.90046884 -16.6875 43.9375 C-16.72166016 44.71673828 -16.75582031 45.49597656 -16.79101562 46.29882812 C-16.8726071 48.19874393 -16.93799885 50.09934403 -17 52 C-22.09723929 47.23472377 -25.14432065 41.70047852 -25.5 34.625 C-24.86950649 23.63912821 -19.58401575 16.52006958 -12 9 C-11.32839844 8.30390625 -10.65679687 7.6078125 -9.96484375 6.890625 C-3.25929752 -0 -3.25929752 -0 0 0 Z " fill="#FA9351" transform="translate(184,1)"/>
<path d="M0 0 C1.98 0 3.96 0 6 0 C8.74900876 6.04558111 11.2904879 12.14086615 13.671875 18.33984375 C14.16279633 19.61209557 14.16279633 19.61209557 14.66363525 20.91004944 C15.34708801 22.68347459 16.02934766 24.45735998 16.71044922 26.23168945 C17.75719503 28.95622768 18.81004724 31.67835498 19.86328125 34.40039062 C20.52901426 36.13006658 21.19439189 37.85987936 21.859375 39.58984375 C22.17493347 40.40436508 22.49049194 41.21888641 22.81561279 42.05809021 C25 47.77069369 25 47.77069369 25 50 C22.69 50 20.38 50 18 50 C17.32942113 48.2097939 16.6636531 46.41778511 16 44.625 C15.62875 43.62726563 15.2575 42.62953125 14.875 41.6015625 C14 39 14 39 14 37 C7.07 37 0.14 37 -7 37 C-7.99 39.97 -8.98 42.94 -10 46 C-10.66 47.32 -11.32 48.64 -12 50 C-13.98 50 -15.96 50 -18 50 C-17.35742609 44.65021107 -15.64538843 40.03453866 -13.69140625 35.05859375 C-13.36462387 34.21329605 -13.03784149 33.36799835 -12.70115662 32.49708557 C-11.66028643 29.80844638 -10.61149596 27.12297782 -9.5625 24.4375 C-8.86080936 22.62845634 -8.15963215 20.81921344 -7.45898438 19.00976562 C-2.40967411 5.984836 -2.40967411 5.984836 0 0 Z " fill="#141414" transform="translate(172,197)"/>
<path d="M0 0 C2.05078125 0.03255208 4.1015625 0.06510417 6.15234375 0.09765625 C0.15234375 7.09765625 -5.84765625 14.09765625 -11.84765625 21.09765625 C-10.56024145 24.67650498 -9.05499549 27.40666958 -6.6953125 30.3828125 C-6.08365234 31.16076172 -5.47199219 31.93871094 -4.84179688 32.74023438 C-4.20435547 33.53880859 -3.56691406 34.33738281 -2.91015625 35.16015625 C-1.65087416 36.75507609 -0.39175397 38.35012378 0.8671875 39.9453125 C1.425271 40.64664307 1.98335449 41.34797363 2.55834961 42.07055664 C3.08436768 42.73949951 3.61038574 43.40844238 4.15234375 44.09765625 C4.7151001 44.80204834 5.27785645 45.50644043 5.85766602 46.23217773 C7.15234375 48.09765625 7.15234375 48.09765625 7.15234375 50.09765625 C3.8698122 50.74243923 2.28499885 51.04174409 -0.84765625 50.09765625 C-4.07915405 46.8164431 -6.37627053 42.96632544 -8.84765625 39.09765625 C-10.33430512 37.0255121 -11.83374434 34.96246641 -13.34765625 32.91015625 C-15.09765625 30.50390625 -15.09765625 30.50390625 -16.84765625 28.09765625 C-19.31565672 29.2493898 -20.8954919 30.1454919 -22.84765625 32.09765625 C-23.15440857 34.99733382 -23.35938996 37.81548803 -23.47265625 40.72265625 C-23.51132813 41.52445313 -23.55 42.32625 -23.58984375 43.15234375 C-23.68419556 45.13373181 -23.7670184 47.1156627 -23.84765625 49.09765625 C-25.82765625 49.09765625 -27.80765625 49.09765625 -29.84765625 49.09765625 C-29.84765625 33.25765625 -29.84765625 17.41765625 -29.84765625 1.09765625 C-27.86765625 1.09765625 -25.88765625 1.09765625 -23.84765625 1.09765625 C-23.51765625 8.35765625 -23.18765625 15.61765625 -22.84765625 23.09765625 C-13.29693714 12.89870274 -13.29693714 12.89870274 -4.01953125 2.453125 C-1.98958856 0.10515796 -1.98958856 0.10515796 0 0 Z " fill="#090909" transform="translate(277.84765625,196.90234375)"/>
<path d="M0 0 C0.98613281 0.00322266 1.97226563 0.00644531 2.98828125 0.00976562 C4.02082031 0.01814453 5.05335938 0.02652344 6.1171875 0.03515625 C7.67759766 0.04192383 7.67759766 0.04192383 9.26953125 0.04882812 C11.84380712 0.06063673 14.41796896 0.0771055 16.9921875 0.09765625 C16.20880503 4.45670317 14.76041113 8.14396874 12.8046875 12.09765625 C12.52560547 12.7009375 12.24652344 13.30421875 11.95898438 13.92578125 C9.34669378 19.23109548 6.11471191 22.59906251 0.75390625 25.171875 C0.06941406 25.37425781 -0.61507812 25.57664062 -1.3203125 25.78515625 C-2.45726562 26.12546875 -2.45726562 26.12546875 -3.6171875 26.47265625 C-7.39186163 27.45949916 -11.18290671 28.32905816 -15.0078125 29.09765625 C-14.26399783 21.28760217 -9.42799343 15.51783718 -4.0078125 10.09765625 C-8.81814354 12.6443021 -12.33223398 15.08793423 -16.0078125 19.09765625 C-16.56415704 13.5342109 -15.03279493 9.65944648 -12.0078125 5.09765625 C-7.92833769 1.30957249 -5.49569488 -0.03158445 0 0 Z " fill="#F99453" transform="translate(212.0078125,39.90234375)"/>
<path d="M0 0 C4.19087151 3.98391489 7.21222021 7.12745974 8 13 C-0.56652342 16.71160782 -8.17199009 18.93805555 -17.2890625 15.90625 C-20.93677503 14.40885965 -24.47466103 12.76266949 -28 11 C-27.67 10.01 -27.34 9.02 -27 8 C-23.4375 6.3125 -23.4375 6.3125 -20 5 C-20.66 4.01 -21.32 3.02 -22 2 C-14.61324554 -3.20430428 -8.11824442 -5.30171064 0 0 Z " fill="#FA9455" transform="translate(240,85)"/>
<path d="M0 0 C1.25503326 -0.00095673 2.51006653 -0.00191345 3.8031311 -0.00289917 C7.11132609 -0.0037458 10.41947256 0.00021572 13.72766113 0.00585938 C17.01766572 0.00907404 20.30765606 0.00141804 23.59765625 -0.00390625 C35.66204021 -0.00749005 47.7101215 0.08769142 59.765625 0.578125 C61.20511002 0.63623856 61.20511002 0.63623856 62.67367554 0.69552612 C67.94755187 0.93813023 73.12239462 1.403926 78.3515625 2.1328125 C78.0215625 2.7928125 77.6915625 3.4528125 77.3515625 4.1328125 C72.00387198 5.23399987 66.72927552 5.27567966 61.28613281 5.26220703 C59.96511063 5.26483551 59.96511063 5.26483551 58.61740112 5.26751709 C55.72147621 5.27189869 52.82561298 5.26900961 49.9296875 5.265625 C47.90338123 5.26629934 45.87707504 5.26727045 43.85076904 5.26852417 C39.6075361 5.26999635 35.36432424 5.26786288 31.12109375 5.26318359 C25.70679662 5.25750121 20.29254923 5.26075891 14.87825394 5.26675606 C10.6932946 5.27038708 6.50834685 5.2692112 2.32338715 5.26662827 C0.32847843 5.26596526 -1.66643136 5.26676532 -3.66133881 5.26910782 C-23.64367651 5.28741675 -23.64367651 5.28741675 -32.6484375 4.1328125 C-32.6484375 3.4728125 -32.6484375 2.8128125 -32.6484375 2.1328125 C-22.00747712 -0.22941843 -10.84886854 -0.01885226 0 0 Z " fill="#93601E" transform="translate(149.6484375,152.8671875)"/>
<path d="M0 0 C3.89730069 -0.00627224 7.79091357 0.0533798 11.6875 0.125 C12.79029297 0.12242188 13.89308594 0.11984375 15.02929688 0.1171875 C23.03626489 0.31070939 23.03626489 0.31070939 25.85009766 2.32324219 C29.72256407 6.90777422 30.10809091 10.16309084 30 16 C29.29423828 15.3503125 29.29423828 15.3503125 28.57421875 14.6875 C27.95160156 14.130625 27.32898438 13.57375 26.6875 13 C25.76517578 12.1646875 25.76517578 12.1646875 24.82421875 11.3125 C22.96868665 9.70798502 22.96868665 9.70798502 20 10 C20.928125 10.70125 21.85625 11.4025 22.8125 12.125 C25.90311279 14.71027563 27.6104694 17.15835658 29 21 C28.6875 23.375 28.6875 23.375 28 25 C27.21625 24.54625 26.4325 24.0925 25.625 23.625 C22.48820618 22.21885104 20.32182 21.64685692 17 21.125 C12.31807779 20.24055892 8.97727493 18.82792491 6 15 C3.05446157 10.13345825 1.04638572 5.59004056 0 0 Z " fill="#FB9351" transform="translate(114,25)"/>
<path d="M0 0 C2.91007977 3.39922084 4.91485736 6.55557472 6.625 10.6875 C7.02976563 11.64011719 7.43453125 12.59273437 7.8515625 13.57421875 C10.46011154 21.35550278 11.36339602 28.94539246 11.3125 37.125 C11.30839111 38.47936157 11.30839111 38.47936157 11.30419922 39.86108398 C11.16281782 49.07281347 10.67417752 59.8506731 6 68 C6.14262412 66.4372038 6.28925511 64.87477304 6.4375 63.3125 C6.51871094 62.44238281 6.59992188 61.57226562 6.68359375 60.67578125 C7 58 7 58 7.53125 55.78125 C8.23784279 51.58879948 8.10362908 47.43012311 8.0625 43.1875 C8.05798828 42.30384766 8.05347656 41.42019531 8.04882812 40.50976562 C8.03709866 38.33981441 8.01916495 36.16989828 8 34 C7.67 34.33 7.34 34.66 7 35 C-2.51561353 36.6091121 -12.38626096 36.09518554 -22 36 C-22 35.67 -22 35.34 -22 35 C-12.62087413 34.20177652 -3.41213252 33.87126263 6 34 C-2.66195031 21.78442905 -12.13011193 14.69536466 -26 9 C-26 8.34 -26 7.68 -26 7 C-15.14782371 6.18096783 -6.55553229 10.66256868 2 17 C1.525625 15.906875 1.05125 14.81375 0.5625 13.6875 C-0.40187809 11.46523745 -1.23166828 9.30499515 -2 7 C1 8 1 8 2 10 C2.33 8.68 2.66 7.36 3 6 C2.34 6 1.68 6 1 6 C0.67 4.02 0.34 2.04 0 0 Z " fill="#FEF4EA" transform="translate(156,62)"/>
<path d="M0 0 C5.9744135 0.02620357 11.65511731 3.09820729 17.0625 5.375 C15.32508595 10.58724216 10.33713589 13.1533536 6.0625 16.375 C5.43085938 16.91382812 4.79921875 17.45265625 4.1484375 18.0078125 C-2.08003374 22.80949738 -9.48437874 21.81170632 -16.9375 21.375 C-16.9375 18.375 -16.9375 18.375 -15.546875 16.62109375 C-14.62648437 15.72583984 -14.62648437 15.72583984 -13.6875 14.8125 C-13.08421875 14.21308594 -12.4809375 13.61367187 -11.859375 12.99609375 C-9.96628362 11.39927887 -8.19213571 10.37761455 -5.9375 9.375 C-8.96169525 9.96303797 -11.95508453 10.60178118 -14.9375 11.375 C-13.54428155 6.49873543 -10.99891704 4.29922027 -6.9375 1.375 C-4.59889152 0.39429322 -2.53025985 0.3230119 0 0 Z " fill="#F99454" transform="translate(245.9375,54.625)"/>
<path d="M0 0 C-4.28669954 3.93049814 -8.65125863 7.50257815 -13.4375 10.8125 C-21.34875757 16.47748637 -27.29545627 23.7152802 -32.90625 31.6015625 C-33.2671875 32.06304687 -33.628125 32.52453125 -34 33 C-34.33 33 -34.66 33 -35 33 C-35.36644578 31.44033408 -35.71760862 29.87707349 -36.0625 28.3125 C-36.25972656 27.44238281 -36.45695313 26.57226562 -36.66015625 25.67578125 C-37.13027058 21.97430634 -36.90521489 19.2816957 -34.72265625 16.19140625 C-27.63316896 9.23536814 -19.75734698 5.09977405 -10.5625 1.5625 C-9.86390869 1.29107178 -9.16531738 1.01964355 -8.44555664 0.73999023 C-3.37117888 -1.12372629 -3.37117888 -1.12372629 0 0 Z " fill="#8E5810" transform="translate(224,75)"/>
<path d="M0 0 C1.16309189 -0.0033284 2.32618378 -0.0066568 3.52452087 -0.01008606 C5.96922412 -0.01512123 8.41393415 -0.01749545 10.85864258 -0.01733398 C14.58230922 -0.01952681 18.30568225 -0.03773654 22.02929688 -0.05664062 C24.41536358 -0.05957406 26.80143168 -0.06155919 29.1875 -0.0625 C30.29086197 -0.06968552 31.39422394 -0.07687103 32.53102112 -0.08427429 C38.84676924 -0.06573595 44.41637268 0.55270062 50.52734375 2.16796875 C40.46641263 7.56597698 24.67203984 5.32475326 13.48291016 5.29833984 C10.76719658 5.29294861 8.05164631 5.29833668 5.3359375 5.3046875 C-18.17881689 5.31488843 -18.17881689 5.31488843 -22.47265625 3.16796875 C-22.47265625 2.50796875 -22.47265625 1.84796875 -22.47265625 1.16796875 C-14.96600311 0.25444961 -7.55753842 0.00763636 0 0 Z " fill="#905C18" transform="translate(158.47265625,163.83203125)"/>
<path d="M0 0 C2.05264866 2.05264866 2.56528526 3.13767959 3.5078125 5.80859375 C3.77207031 6.55560547 4.03632813 7.30261719 4.30859375 8.07226562 C4.57800781 8.85279297 4.84742188 9.63332031 5.125 10.4375 C5.40214844 11.21416016 5.67929688 11.99082031 5.96484375 12.79101562 C8 18.61076047 8 18.61076047 8 22 C3.05 22 -1.9 22 -7 22 C-6.2291387 16.60397092 -5.33641881 12.6324443 -3.5 7.625 C-3.0565625 6.40039062 -2.613125 5.17578125 -2.15625 3.9140625 C-1 1 -1 1 0 0 Z " fill="#F1F1F1" transform="translate(175,206)"/>
<path d="M0 0 C0.66 0.66 1.32 1.32 2 2 C1.48308594 2.34289062 0.96617187 2.68578125 0.43359375 3.0390625 C-1.92261616 4.91111969 -3.44320824 6.40398861 -5 9 C-5.32292996 13.7762383 -4.77784345 18.28718378 -4 23 C-4.66 23 -5.32 23 -6 23 C-5.9278125 23.53882812 -5.855625 24.07765625 -5.78125 24.6328125 C-4.60558494 35.05051124 -4.90997152 45.53315031 -5 56 C-5.33 56 -5.66 56 -6 56 C-6.03963867 55.1656543 -6.07927734 54.33130859 -6.12011719 53.47167969 C-6.94054309 36.99517054 -8.06048087 21.08318246 -12 5 C-11.01 5.33 -10.02 5.66 -9 6 C-9 6.66 -9 7.32 -9 8 C-8.34 8 -7.68 8 -7 8 C-7 7.34 -7 6.68 -7 6 C-5.6875 4.375 -5.6875 4.375 -4 3 C-3.01 3 -2.02 3 -1 3 C-0.67 2.01 -0.34 1.02 0 0 Z " fill="#F8EDD1" transform="translate(193,85)"/>
<path d="M0 0 C1.32 0 2.64 0 4 0 C4.99 2.31 5.98 4.62 7 7 C7.99 7 8.98 7 10 7 C10.37125 5.5459375 10.37125 5.5459375 10.75 4.0625 C11.1625 3.051875 11.575 2.04125 12 1 C13.32 0.67 14.64 0.34 16 0 C16 5.28 16 10.56 16 16 C10.20182279 16.43925585 10.20182279 16.43925585 7 15 C4.3190602 10.9179106 2.6655704 6.57437013 1 2 C0.67 1.34 0.34 0.68 0 0 Z " fill="#C9B496" transform="translate(32,269)"/>
<path d="M0 0 C6.8359375 -0.1953125 6.8359375 -0.1953125 9 0 C11.49505962 2.49505962 11.35948376 3.67328888 11.625 7.125 C11.69976562 8.03507812 11.77453125 8.94515625 11.8515625 9.8828125 C11.90054688 10.58148438 11.94953125 11.28015625 12 12 C7.41466617 12.80917656 4.66958927 12.93391785 0 12 C0 8.04 0 4.08 0 0 Z " fill="#D7C8B0" transform="translate(214,273)"/>
<path d="M0 0 C0 0.66 0 1.32 0 2 C3.96 2 7.92 2 12 2 C12 2.33 12 2.66 12 3 C7.07446652 3.02497151 2.148971 3.04298678 -2.77661133 3.05493164 C-4.44751631 3.05991846 -6.11841702 3.06671031 -7.78930664 3.07543945 C-16.91178123 3.12185731 -25.92833871 3.12303748 -35 2 C-35 1.34 -35 0.68 -35 0 C-23.72533528 -2.55046276 -11.4494387 -0.71240952 0 0 Z " fill="#905A14" transform="translate(152,155)"/>
<path d="M0 0 C3.89730069 -0.00627224 7.79091357 0.0533798 11.6875 0.125 C12.79029297 0.12242188 13.89308594 0.11984375 15.02929688 0.1171875 C23.03626489 0.31070939 23.03626489 0.31070939 25.85009766 2.32324219 C29.72256407 6.90777422 30.10809091 10.16309084 30 16 C29.29423828 15.3503125 29.29423828 15.3503125 28.57421875 14.6875 C27.95160156 14.130625 27.32898438 13.57375 26.6875 13 C25.76517578 12.1646875 25.76517578 12.1646875 24.82421875 11.3125 C22.96868665 9.70798502 22.96868665 9.70798502 20 10 C20.99 10.99 21.98 11.98 23 13 C21.02 13 19.04 13 17 13 C16 10 16 10 17 7 C19.0625 6.3125 19.0625 6.3125 21 6 C21.33 4.68 21.66 3.36 22 2 C15.4 2 8.8 2 2 2 C1.67 2.99 1.34 3.98 1 5 C0.67 3.35 0.34 1.7 0 0 Z " fill="#F49A62" transform="translate(114,25)"/>
<path d="M0 0 C0.33 3.63 0.66 7.26 1 11 C-0.65 11 -2.3 11 -4 11 C-5.81476003 12.39585785 -5.81476003 12.39585785 -7 14 C-7.99 13.67 -8.98 13.34 -10 13 C-9.67 8.71 -9.34 4.42 -9 0 C-5 -1 -5 -1 0 0 Z " fill="#BEA784" transform="translate(127,274)"/>
<path d="M0 0 C1.65 0 3.3 0 5 0 C4.67 2.31 4.34 4.62 4 7 C4.556875 7.268125 5.11375 7.53625 5.6875 7.8125 C6.450625 8.204375 7.21375 8.59625 8 9 C8.9075 9.45375 9.815 9.9075 10.75 10.375 C11.4925 10.91125 12.235 11.4475 13 12 C13 13.32 13 14.64 13 16 C11.35 16 9.7 16 8 16 C8 15.34 8 14.68 8 14 C7.34 14 6.68 14 6 14 C6 14.99 6 15.98 6 17 C3.69 17 1.38 17 -1 17 C-1 16.34 -1 15.68 -1 15 C-0.34 15 0.32 15 1 15 C0.67 10.05 0.34 5.1 0 0 Z " fill="#E4D8C0" transform="translate(244,269)"/>
<path d="M0 0 C2.5625 0.375 2.5625 0.375 4.3125 2.0625 C5.68201333 4.59609967 6.34149322 6.5019118 6.5625 9.375 C5.5725 10.86 5.5725 10.86 4.5625 12.375 C1.0625 12.6875 1.0625 12.6875 -2.4375 12.375 C-4.4375 10.375 -4.4375 10.375 -4.703125 8.5 C-4.69796875 7.79875 -4.6928125 7.0975 -4.6875 6.375 C-4.69265625 5.67375 -4.6978125 4.9725 -4.703125 4.25 C-4.26498612 1.15725493 -2.96670492 0.45641614 0 0 Z " fill="#CCBC9E" transform="translate(104.4375,272.625)"/>
<path d="M0 0 C2.97 0 5.94 0 9 0 C9.495 1.98 9.495 1.98 10 4 C7.82052348 6.17947652 2.44108801 5.45337729 -0.62890625 5.60546875 C-4.10944277 5.4970552 -4.10944277 5.4970552 -7 7 C-9.08920393 7.10038786 -11.18182405 7.13081587 -13.2734375 7.1328125 C-14.57410156 7.13410156 -15.87476563 7.13539063 -17.21484375 7.13671875 C-17.8991748 7.13462402 -18.58350586 7.1325293 -19.28857422 7.13037109 C-21.33178457 7.12511125 -23.3747661 7.13026705 -25.41796875 7.13671875 C-33.00275043 7.12927539 -40.46314652 6.87001806 -48 6 C-48 5.67 -48 5.34 -48 5 C-46.39112915 4.96241577 -46.39112915 4.96241577 -44.74975586 4.92407227 C-40.69596304 4.82851058 -36.64228385 4.72867978 -32.58862305 4.62768555 C-30.84809055 4.58488951 -29.10753075 4.54318739 -27.36694336 4.50268555 C-16.5526953 4.25017644 -5.7866439 3.83178302 5 3 C5 2.67 5 2.34 5 2 C2.525 1.505 2.525 1.505 0 1 C0 0.67 0 0.34 0 0 Z " fill="#F5EAD1" transform="translate(200,164)"/>
<path d="M0 0 C-0.55774272 3.23490776 -1.37211508 4.97855006 -4 7 C-4.99 7 -5.98 7 -7 7 C-7 7.66 -7 8.32 -7 9 C-5.35 9 -3.7 9 -2 9 C-1.375 11.375 -1.375 11.375 -1 14 C-3 16 -3 16 -6.125 16.125 C-7.548125 16.063125 -7.548125 16.063125 -9 16 C-10.125 14.25 -10.125 14.25 -11 12 C-10.125 9.75 -10.125 9.75 -9 8 C-9.33 7.67 -9.66 7.34 -10 7 C-10.04080783 5.00041636 -10.04254356 2.99954746 -10 1 C-9.34 1 -8.68 1 -8 1 C-8 2.65 -8 4.3 -8 6 C-7.01 6 -6.02 6 -5 6 C-5 4.35 -5 2.7 -5 1 C-3 0 -3 0 0 0 Z " fill="#A48C66" transform="translate(191,273)"/>
<path d="M0 0 C0.9583374 0.00523682 1.9166748 0.01047363 2.90405273 0.01586914 C4.45576172 0.02070313 4.45576172 0.02070313 6.03881836 0.02563477 C7.12743164 0.03401367 8.21604492 0.04239258 9.33764648 0.05102539 C10.97636719 0.05779297 10.97636719 0.05779297 12.64819336 0.06469727 C15.35723144 0.07652713 18.06616248 0.09300996 20.77514648 0.11352539 C20.11514648 1.10352539 19.45514648 2.09352539 18.77514648 3.11352539 C15.79563659 3.38006485 13.02628828 3.46120323 10.04858398 3.40649414 C9.18576813 3.4022493 8.32295227 3.39800446 7.43399048 3.39363098 C4.67239451 3.37680931 1.91152266 3.33915137 -0.84985352 3.30102539 C-2.71963466 3.28598303 -4.58942722 3.27229385 -6.45922852 3.26000977 C-11.0480501 3.22689445 -15.63632896 3.17508878 -20.22485352 3.11352539 C-20.22485352 2.78352539 -20.22485352 2.45352539 -20.22485352 2.11352539 C-18.40147461 2.02264648 -18.40147461 2.02264648 -16.54125977 1.92993164 C-14.95661124 1.84554207 -13.3719765 1.76089329 -11.78735352 1.67602539 C-10.98491211 1.63670898 -10.1824707 1.59739258 -9.35571289 1.55688477 C-5.90992029 1.36787504 -3.10923849 0.15865202 0 0 Z " fill="#8A5106" transform="translate(138.224853515625,142.886474609375)"/>
<path d="M0 0 C4.44903819 6.67355728 4.36110334 15.3138542 4.3125 23.125 C4.30976074 24.02790771 4.30702148 24.93081543 4.30419922 25.86108398 C4.16281782 35.07281347 3.67417752 45.8506731 -1 54 C-0.85737588 52.4372038 -0.71074489 50.87477304 -0.5625 49.3125 C-0.48128906 48.44238281 -0.40007812 47.57226562 -0.31640625 46.67578125 C0 44 0 44 0.51147461 41.73779297 C1.06834252 38.61699497 1.12963434 35.68974092 1.1328125 32.51953125 C1.13410156 31.27236328 1.13539063 30.02519531 1.13671875 28.74023438 C1.13285156 27.44408203 1.12898437 26.14792969 1.125 24.8125 C1.12886719 23.53568359 1.13273438 22.25886719 1.13671875 20.94335938 C1.12947547 13.89926618 0.89892177 6.98967984 0 0 Z " fill="#F1E2C6" transform="translate(163,76)"/>
<path d="M0 0 C0.7003688 0.00141495 1.40073761 0.0028299 2.12232971 0.00428772 C4.33290091 0.00983148 6.54336629 0.02237299 8.75390625 0.03515625 C10.2636704 0.04017854 11.77343616 0.04474016 13.28320312 0.04882812 C16.96097118 0.05978238 20.63867837 0.07700735 24.31640625 0.09765625 C23.98640625 0.75765625 23.65640625 1.41765625 23.31640625 2.09765625 C-2.05701147 3.78120055 -2.05701147 3.78120055 -14.68359375 2.09765625 C-14.68359375 1.76765625 -14.68359375 1.43765625 -14.68359375 1.09765625 C-9.7320688 0.28781431 -5.034071 -0.02021715 0 0 Z " fill="#875616" transform="translate(111.68359375,142.90234375)"/>
<path d="M0 0 C2.81403053 8.44209159 -0.20411963 19.45649143 -2 28 C-2.99 28 -3.98 28 -5 28 C-4.94750256 24.83205101 -4.85229512 21.66670122 -4.75 18.5 C-4.73582031 17.613125 -4.72164062 16.72625 -4.70703125 15.8125 C-4.4762054 9.53403696 -3.17238699 5.43112653 0 0 Z " fill="#FEF1E0" transform="translate(171,28)"/>
<path d="M0 0 C6.17124332 3.19543026 11.86719306 6.2833666 17 11 C16.401875 11.268125 15.80375 11.53625 15.1875 11.8125 C13.01683117 12.99086308 11.69182788 14.23060981 10 16 C8.70545435 14.08527667 7.41447056 12.16814482 6.125 10.25 C5.40570313 9.18265625 4.68640625 8.1153125 3.9453125 7.015625 C2.45492743 4.70522886 1.14800599 2.48936036 0 0 Z " fill="#915E1D" transform="translate(147,48)"/>
<path d="M0 0 C2.375 -0.125 2.375 -0.125 5 0 C7.49505962 2.49505962 7.35948376 3.67328888 7.625 7.125 C7.69976562 8.03507812 7.77453125 8.94515625 7.8515625 9.8828125 C7.90054687 10.58148438 7.94953125 11.28015625 8 12 C5.36 12 2.72 12 0 12 C-0.33 10.35 -0.66 8.7 -1 7 C0.65 6.34 2.3 5.68 4 5 C4 3.68 4 2.36 4 1 C3.01 1 2.02 1 1 1 C1 1.99 1 2.98 1 4 C0.34 4 -0.32 4 -1 4 C-0.67 2.68 -0.34 1.36 0 0 Z " fill="#B8A07E" transform="translate(265,273)"/>
<path d="M0 0 C0.66 0.33 1.32 0.66 2 1 C1.29875 1.474375 0.5975 1.94875 -0.125 2.4375 C-4.79937912 6.60379443 -8.96976299 11.69997704 -9.875 18.0625 C-9.91625 19.031875 -9.9575 20.00125 -10 21 C-10.99 20.67 -11.98 20.34 -13 20 C-12.34 17.03 -11.68 14.06 -11 11 C-11.66 11 -12.32 11 -13 11 C-13 8.69 -13 6.38 -13 4 C-12.34 5.32 -11.68 6.64 -11 8 C-10.45730469 7.50628906 -9.91460937 7.01257812 -9.35546875 6.50390625 C-8.64003906 5.86324219 -7.92460937 5.22257812 -7.1875 4.5625 C-6.47980469 3.92441406 -5.77210938 3.28632812 -5.04296875 2.62890625 C-3 1 -3 1 0 0 Z " fill="#FEF0E2" transform="translate(208,49)"/>
<path d="M0 0 C0.66 0.33 1.32 0.66 2 1 C2 2.32 2 3.64 2 5 C2.66 5.33 3.32 5.66 4 6 C3.34 6 2.68 6 2 6 C2.33 8.97 2.66 11.94 3 15 C3.66 14.67 4.32 14.34 5 14 C4.67 14.99 4.34 15.98 4 17 C2.02 16.67 0.04 16.34 -2 16 C-2.19601608 14.25093341 -2.38147403 12.50068154 -2.5625 10.75 C-2.66691406 9.77546875 -2.77132813 8.8009375 -2.87890625 7.796875 C-2.99076038 5.21340534 -2.92074889 3.40387135 -2 1 C-1.34 0.67 -0.68 0.34 0 0 Z " fill="#C6B18E" transform="translate(282,268)"/>
<path d="M0 0 C1.13500694 0.88312038 2.25761307 1.78218855 3.375 2.6875 C4.00148437 3.18636719 4.62796875 3.68523437 5.2734375 4.19921875 C7.29283488 6.3054228 8.07439676 8.25591363 9 11 C-16.70117287 13.24885263 -16.70117287 13.24885263 -26 11 C-26 10.67 -26 10.34 -26 10 C-15.44 10 -4.88 10 6 10 C3.48254484 5.34611855 3.48254484 5.34611855 1.3125 3.3125 C0.879375 2.879375 0.44625 2.44625 0 2 C0 1.34 0 0.68 0 0 Z " fill="#EC9C69" transform="translate(153,85)"/>
<path d="M0 0 C5.01594966 1.28314991 7.74579723 2.9542344 11 7 C11.82875915 8.99710742 12.50385055 11.01177422 13.17578125 13.06640625 C14.44176105 16.03635887 16.62538827 17.88210305 19 20 C19 20.33 19 20.66 19 21 C17.35 21 15.7 21 14 21 C14 20.01 14 19.02 14 18 C12.68 17.67 11.36 17.34 10 17 C9.87625 15.4221875 9.87625 15.4221875 9.75 13.8125 C8.5252239 7.58655481 4.43732697 4.31406789 0 0 Z " fill="#FBF1E0" transform="translate(132,33)"/>
<path d="M0 0 C2.47186455 2.96346786 3.66248361 5.54041689 4.6875 9.25 C5.06455078 10.58804687 5.06455078 10.58804687 5.44921875 11.953125 C5.63097656 12.62859375 5.81273437 13.3040625 6 14 C5.34 14 4.68 14 4 14 C3.773125 13.360625 3.54625 12.72125 3.3125 12.0625 C2.14749104 9.72806339 2.14749104 9.72806339 -0.625 9.25 C-1.40875 9.1675 -2.1925 9.085 -3 9 C-3 10.98 -3 12.96 -3 15 C-4.32 14.67 -5.64 14.34 -7 14 C-6.02352161 11.85294201 -5.0437441 9.70738416 -4.0625 7.5625 C-3.51722656 6.36753906 -2.97195312 5.17257812 -2.41015625 3.94140625 C-1 1 -1 1 0 0 Z " fill="#D5CAB5" transform="translate(152,270)"/>
<path d="M0 0 C3.29159316 -0.05790353 6.58305603 -0.09356261 9.875 -0.125 C10.81214844 -0.14175781 11.74929687 -0.15851563 12.71484375 -0.17578125 C13.61074219 -0.18222656 14.50664062 -0.18867188 15.4296875 -0.1953125 C16.25710449 -0.20578613 17.08452148 -0.21625977 17.93701172 -0.22705078 C20 0 20 0 22 2 C17.14270355 2.97299156 12.5499375 3.12038805 7.625 3.0625 C6.88894531 3.05798828 6.15289062 3.05347656 5.39453125 3.04882812 C3.59631842 3.03715142 1.79814803 3.01922011 0 3 C0 2.01 0 1.02 0 0 Z " fill="#8E632B" transform="translate(226,143)"/>
<path d="M0 0 C0.99 0 1.98 0 3 0 C3.33 5.61 3.66 11.22 4 17 C2.35 17 0.7 17 -1 17 C-1.02721176 15.10424749 -1.04649136 13.20838021 -1.0625 11.3125 C-1.07410156 10.25675781 -1.08570312 9.20101563 -1.09765625 8.11328125 C-1.00865425 5.27589738 -0.64939838 2.7561081 0 0 Z " fill="#B69C7B" transform="translate(73,268)"/>
<path d="M0 0 C3.16277272 1.58138636 3.43093689 4.32596051 4.625 7.5625 C5.29402344 9.35880859 5.29402344 9.35880859 5.9765625 11.19140625 C6.31429687 12.11824219 6.65203125 13.04507812 7 14 C4 15 4 15 0 14 C0 9.38 0 4.76 0 0 Z " fill="#E5D9C9" transform="translate(33,271)"/>
<path d="M0 0 C1.65 0 3.3 0 5 0 C5 0.99 5 1.98 5 3 C5.99 2.67 6.98 2.34 8 2 C8 1.34 8 0.68 8 0 C8.99 0.33 9.98 0.66 11 1 C9.68 4.3 8.36 7.6 7 11 C6.34 11 5.68 11 5 11 C3.35 7.37 1.7 3.74 0 0 Z " fill="#DFD3BE" transform="translate(292,273)"/>
<path d="M0 0 C3.96189783 4.23513217 5.43181728 8.547001 7 14 C6.01 13.67 5.02 13.34 4 13 C4 15.31 4 17.62 4 20 C1.5042679 17.5042679 1.05099468 15.35004555 0 12 C-0.65411685 10.32836805 -1.31653318 8.65984798 -2 7 C1 8 1 8 2 10 C2.33 8.68 2.66 7.36 3 6 C2.34 6 1.68 6 1 6 C0.67 4.02 0.34 2.04 0 0 Z " fill="#FCEBD8" transform="translate(156,62)"/>
<path d="M0 0 C1.65 0 3.3 0 5 0 C4.67 2.31 4.34 4.62 4 7 C4.5775 7.20625 5.155 7.4125 5.75 7.625 C8.81410544 9.49750888 10.15539968 11.96958519 12 15 C11.01 15 10.02 15 9 15 C6.8125 12 6.8125 12 5 9 C4.67 10.98 4.34 12.96 4 15 C3.34 15 2.68 15 2 15 C1.90912109 13.62714844 1.90912109 13.62714844 1.81640625 12.2265625 C1.69072266 10.44378906 1.69072266 10.44378906 1.5625 8.625 C1.48128906 7.44164062 1.40007812 6.25828125 1.31640625 5.0390625 C1.18915064 2.08481099 1.18915064 2.08481099 0 0 Z " fill="#967142" transform="translate(244,269)"/>
<path d="M0 0 C1.98 0 3.96 0 6 0 C7.20272819 2.40545638 7.10071472 3.94996953 7.0625 6.625 C7.05347656 7.44226563 7.04445313 8.25953125 7.03515625 9.1015625 C7.02355469 9.72804688 7.01195313 10.35453125 7 11 C4.69 11.33 2.38 11.66 0 12 C-0.33 10.35 -0.66 8.7 -1 7 C-0.34 7 0.32 7 1 7 C1 7.99 1 8.98 1 10 C1.99 9.67 2.98 9.34 4 9 C4 6.69 4 4.38 4 2 C3.34 1.67 2.68 1.34 2 1 C2 1.99 2 2.98 2 4 C1.01 4 0.02 4 -1 4 C-0.67 2.68 -0.34 1.36 0 0 Z " fill="#A2825A" transform="translate(57,273)"/>
<path d="M0 0 C1.99954746 -0.04254356 4.00041636 -0.04080783 6 0 C7 1 7 1 7.09765625 3.28515625 C7.08605469 4.20167969 7.07445312 5.11820312 7.0625 6.0625 C7.05347656 6.98160156 7.04445312 7.90070313 7.03515625 8.84765625 C7.02355469 9.55792969 7.01195312 10.26820313 7 11 C4.69 11.33 2.38 11.66 0 12 C-0.33 10.35 -0.66 8.7 -1 7 C-0.34 7 0.32 7 1 7 C1 7.99 1 8.98 1 10 C1.99 9.67 2.98 9.34 4 9 C4 6.69 4 4.38 4 2 C3.34 1.67 2.68 1.34 2 1 C1.67 1.99 1.34 2.98 1 4 C0.34 3.34 -0.32 2.68 -1 2 C-0.67 1.34 -0.34 0.68 0 0 Z " fill="#9E8255" transform="translate(199,273)"/>
<path d="M0 0 C-0.79664063 0.02578125 -1.59328125 0.0515625 -2.4140625 0.078125 C-8.81759882 0.42089337 -13.07896378 0.76244103 -18 5 C-17.34 5.66 -16.68 6.32 -16 7 C-17.98 7.66 -19.96 8.32 -22 9 C-20.60678155 4.12373543 -18.06141704 1.92422027 -14 -1 C-9.3202847 -2.96246126 -4.17054484 -2.78036323 0 0 Z " fill="#EF9E6E" transform="translate(253,57)"/>
<path d="M0 0 C3.3 0.33 6.6 0.66 10 1 C9.01 2.32 8.02 3.64 7 5 C6.74913276 8.16732421 6.74913276 8.16732421 7 11 C4.5 9.875 4.5 9.875 2 8 C1.8125 4.9375 1.8125 4.9375 2 2 C1.34 1.34 0.68 0.68 0 0 Z " fill="#E9E0D0" transform="translate(246,268)"/>
<path d="M0 0 C1.4540625 0.0309375 1.4540625 0.0309375 2.9375 0.0625 C2.9375 1.3825 2.9375 2.7025 2.9375 4.0625 C2.2775 4.0625 1.6175 4.0625 0.9375 4.0625 C1.9275 5.5475 1.9275 5.5475 2.9375 7.0625 C2.5625 9.25 2.5625 9.25 1.9375 11.0625 C-1.55505468 7.92815605 -3.79450974 5.88632465 -4.0625 1.0625 C-3.0625 0.0625 -3.0625 0.0625 0 0 Z " fill="#E0D0BC" transform="translate(89.0625,272.9375)"/>
<path d="M0 0 C0.66 0 1.32 0 2 0 C2 4.95 2 9.9 2 15 C-2.9 10.1 -2.9 10.1 -4 7 C-3.67 6.01 -3.34 5.02 -3 4 C-2.34 4.66 -1.68 5.32 -1 6 C-0.67 4.02 -0.34 2.04 0 0 Z " fill="#EC9964" transform="translate(165,38)"/>
<path d="M0 0 C-3.22515763 1.73662334 -6.51329166 2.8905928 -10 4 C-8.68 4.66 -7.36 5.32 -6 6 C-6 6.33 -6 6.66 -6 7 C-8.97 7 -11.94 7 -15 7 C-15 6.01 -15 5.02 -15 4 C-9.99714768 0.38682888 -6.0613897 -0.13775886 0 0 Z " fill="#F1A370" transform="translate(234,82)"/>
<path d="M0 0 C-1.26572233 1.15147661 -2.53777906 2.29599314 -3.8125 3.4375 C-4.52019531 4.07558594 -5.22789062 4.71367188 -5.95703125 5.37109375 C-8 7 -8 7 -11 8 C-11.33 7.34 -11.66 6.68 -12 6 C-11.34 6 -10.68 6 -10 6 C-10 5.01 -10 4.02 -10 3 C-10.66 2.67 -11.32 2.34 -12 2 C-10.56656 1.46809459 -9.12804633 0.94984742 -7.6875 0.4375 C-6.48673828 0.00244141 -6.48673828 0.00244141 -5.26171875 -0.44140625 C-3 -1 -3 -1 0 0 Z " fill="#906022" transform="translate(224,75)"/>
<path d="M0 0 C3.07275391 -0.2487793 3.07275391 -0.2487793 6.9765625 -0.07421875 C7.66181 -0.04777786 8.3470575 -0.02133698 9.05307007 0.00590515 C11.2445899 0.09377262 13.43447099 0.2028776 15.625 0.3125 C17.10931603 0.37574843 18.59369164 0.43761485 20.078125 0.49804688 C23.71957803 0.64932624 27.35985716 0.8196667 31 1 C31 1.33 31 1.66 31 2 C14.665 2.495 14.665 2.495 -2 3 C-1.34 2.01 -0.68 1.02 0 0 Z " fill="#E6D2AF" transform="translate(101,141)"/>
<path d="M0 0 C6.1105424 -0.11269443 11.95170514 0.10395632 18 1 C17.67 1.66 17.34 2.32 17 3 C11.96109772 4.0283474 7.11310018 4.08970351 2 4 C3.32 3.67 4.64 3.34 6 3 C6 2.34 6 1.68 6 1 C4.02 1 2.04 1 0 1 C0 0.67 0 0.34 0 0 Z " fill="#9D7640" transform="translate(210,154)"/>
<path d="M0 0 C0.66 0.33 1.32 0.66 2 1 C0.3833652 7.03280791 -1.16709462 10.950809 -6 15 C-6.99 14.67 -7.98 14.34 -9 14 C-9 13.34 -9 12.68 -9 12 C-8.34 12 -7.68 12 -7 12 C-6.34 10.68 -5.68 9.36 -5 8 C-5 8.66 -5 9.32 -5 10 C-4.34 10 -3.68 10 -3 10 C-2.814375 8.9171875 -2.814375 8.9171875 -2.625 7.8125 C-2.0095069 5.04278106 -1.11555626 2.6029646 0 0 Z " fill="#FCF6EE" transform="translate(302,274)"/>
<path d="M0 0 C-0.55774272 3.23490776 -1.37211508 4.97855006 -4 7 C-4.99 7 -5.98 7 -7 7 C-7.33 7.66 -7.66 8.32 -8 9 C-8 8.34 -8 7.68 -8 7 C-8.66 7 -9.32 7 -10 7 C-10 5.02 -10 3.04 -10 1 C-9.34 1 -8.68 1 -8 1 C-8 2.65 -8 4.3 -8 6 C-7.01 6 -6.02 6 -5 6 C-5 4.35 -5 2.7 -5 1 C-3 0 -3 0 0 0 Z " fill="#AA8E6B" transform="translate(191,273)"/>
<path d="M0 0 C3.12270126 2.51830747 3.94523098 3.7261549 4.75 7.75 C4.87375 9.35875 4.87375 9.35875 5 11 C1.37 9.68 -2.26 8.36 -6 7 C-6 6.67 -6 6.34 -6 6 C-4.02 5.67 -2.04 5.34 0 5 C0 3.35 0 1.7 0 0 Z " fill="#F09E67" transform="translate(138,39)"/>
<path d="M0 0 C2.475 0.495 2.475 0.495 5 1 C4.67 4.63 4.34 8.26 4 12 C2.68 11.67 1.36 11.34 0 11 C0 7.37 0 3.74 0 0 Z " fill="#AF9069" transform="translate(214,273)"/>
<path d="M0 0 C0.99 0.33 1.98 0.66 3 1 C3 3.31 3 5.62 3 8 C1.68 8.33 0.36 8.66 -1 9 C-1 8.01 -1 7.02 -1 6 C-1.66 6 -2.32 6 -3 6 C-2.42655063 3.13275314 -2.1385485 2.1385485 0 0 Z " fill="#F1E8D2" transform="translate(201,274)"/>
<path d="M0 0 C4.59938685 9.1987737 5.43761102 17.80528392 5 28 C4.67 28 4.34 28 4 28 C3.90912109 26.82244141 3.90912109 26.82244141 3.81640625 25.62109375 C3.37179786 20.04638852 2.87875357 14.52359384 2 9 C1.34 9 0.68 9 0 9 C0 6.03 0 3.06 0 0 Z " fill="#F1A372" transform="translate(185,12)"/>
<path d="M0 0 C3.53586014 3.17320782 5.58578031 5.16743695 6 10 C4.02 10 2.04 10 0 10 C0 6.7 0 3.4 0 0 Z " fill="#E1D4BE" transform="translate(84,275)"/>
<path d="M0 0 C6.33393082 -0.34548714 11.10261508 0.70657253 17 3 C13.52176885 4.15941038 11.54104422 3.70820884 8 3 C8.33 3.66 8.66 4.32 9 5 C6.03 4.01 3.06 3.02 0 2 C0 1.34 0 0.68 0 0 Z " fill="#FEEEDB" transform="translate(130,69)"/>
<path d="M0 0 C1 3.875 1 3.875 1 5 C3.97 5.33 6.94 5.66 10 6 C6.80107719 7.5994614 4.64537424 8.42595236 1.25 9.125 C0.45078125 9.29257813 -0.3484375 9.46015625 -1.171875 9.6328125 C-1.77515625 9.75398438 -2.3784375 9.87515625 -3 10 C-2.49287967 6.28111761 -1.88391785 3.26545761 0 0 Z " fill="#EF9D66" transform="translate(200,59)"/>
<path d="M0 0 C1.07765625 0.00902344 2.1553125 0.01804688 3.265625 0.02734375 C4.08546875 0.03894531 4.9053125 0.05054688 5.75 0.0625 C2.72906785 3.08343215 -0.81372072 2.52926834 -4.875 2.6875 C-5.67679687 2.72617187 -6.47859375 2.76484375 -7.3046875 2.8046875 C-9.28607556 2.89903931 -11.26800645 2.98186215 -13.25 3.0625 C-8.72900181 0.04850121 -5.38967935 -0.05858347 0 0 Z " fill="#F5A877" transform="translate(130.25,53.9375)"/>
<path d="M0 0 C0 0.99 0 1.98 0 3 C-1.32 3 -2.64 3 -4 3 C-4.33 5.64 -4.66 8.28 -5 11 C-5.66 11 -6.32 11 -7 11 C-7 7.7 -7 4.4 -7 1 C-4 0 -4 0 0 0 Z " fill="#977B52" transform="translate(174,273)"/>
<path d="M0 0 C1.60294922 0.01353516 1.60294922 0.01353516 3.23828125 0.02734375 C4.04652344 0.03894531 4.85476562 0.05054688 5.6875 0.0625 C5.6875 0.3925 5.6875 0.7225 5.6875 1.0625 C3.7075 1.3925 1.7275 1.7225 -0.3125 2.0625 C-0.3125 2.3925 -0.3125 2.7225 -0.3125 3.0625 C-3.9425 3.0625 -7.5725 3.0625 -11.3125 3.0625 C-11.3125 2.4025 -11.3125 1.7425 -11.3125 1.0625 C-7.47525828 0.15836327 -3.93747726 -0.04326898 0 0 Z " fill="#9B7742" transform="translate(128.3125,153.9375)"/>
<path d="M0 0 C1.32 0 2.64 0 4 0 C4.69848264 1.93356782 5.38344814 3.87202298 6.0625 5.8125 C6.44535156 6.89144531 6.82820313 7.97039062 7.22265625 9.08203125 C8 12 8 12 7 15 C6.57847656 14.08476562 6.15695313 13.16953125 5.72265625 12.2265625 C5.17480469 11.03804688 4.62695312 9.84953125 4.0625 8.625 C3.51722656 7.44164062 2.97195312 6.25828125 2.41015625 5.0390625 C1.62645977 3.3500989 0.8326798 1.66535959 0 0 Z " fill="#916E40" transform="translate(32,269)"/>
<path d="M0 0 C-4.73089393 4.73089393 -12.66676858 4.51576903 -19 5 C-19 4.34 -19 3.68 -19 3 C-16.77228658 2.49356447 -14.54275924 1.9951038 -12.3125 1.5 C-10.45044922 1.08234375 -10.45044922 1.08234375 -8.55078125 0.65625 C-5.57601782 0.10645874 -3.00631398 -0.13795705 0 0 Z " fill="#FEF1E1" transform="translate(109,59)"/>
<path d="M0 0 C0.33 0 0.66 0 1 0 C1.125 3.375 1.125 3.375 1 7 C0.34 7.66 -0.32 8.32 -1 9 C-2.32 9 -3.64 9 -5 9 C-3.75471468 5.55151758 -2.38532951 2.80016942 0 0 Z " fill="#92682D" transform="translate(184,63)"/>
<path d="M0 0 C0.33 0 0.66 0 1 0 C1.65277227 3.02472694 2.12784021 5.89987488 2 9 C-0.1875 11.625 -0.1875 11.625 -3 13 C-5.3125 12.75 -5.3125 12.75 -7 12 C-7 11.34 -7 10.68 -7 10 C-3.535 9.505 -3.535 9.505 0 9 C0 6.03 0 3.06 0 0 Z " fill="#F6F2E5" transform="translate(64,275)"/>
<path d="M0 0 C2.47186455 2.96346786 3.66248361 5.54041689 4.6875 9.25 C4.93886719 10.14203125 5.19023437 11.0340625 5.44921875 11.953125 C5.72185547 12.96632813 5.72185547 12.96632813 6 14 C5.34 14 4.68 14 4 14 C3.13395466 12.23494565 2.28251358 10.46271926 1.4375 8.6875 C0.72400391 7.20830078 0.72400391 7.20830078 -0.00390625 5.69921875 C-1 3 -1 3 0 0 Z " fill="#8C6836" transform="translate(152,270)"/>
<path d="M0 0 C-3.22791555 2.1519437 -4.28400809 2.20086443 -8 2 C-8.33 2.66 -8.66 3.32 -9 4 C-10.32 2.68 -11.64 1.36 -13 0 C-11.58456585 -0.19658808 -10.16755969 -0.38187546 -8.75 -0.5625 C-7.96109375 -0.66691406 -7.1721875 -0.77132812 -6.359375 -0.87890625 C-3.99467126 -1.00027349 -2.2488963 -0.69633257 0 0 Z " fill="#EDA275" transform="translate(104,63)"/>
<path d="M0 0 C3.91211733 1.15585285 6.8745041 2.35534962 10 5 C9.34 6.32 8.68 7.64 8 9 C5.06799526 6.14723863 2.35684596 3.34920216 0 0 Z " fill="#FEE8CC" transform="translate(132,33)"/>
<path d="M0 0 C0.99 0.33 1.98 0.66 3 1 C3 1.66 3 2.32 3 3 C3.66 3.33 4.32 3.66 5 4 C4.67 4.99 4.34 5.98 4 7 C3.93334624 8.39439664 3.91461801 9.79169875 3.9375 11.1875 C3.958125 12.445625 3.97875 13.70375 4 15 C3.67 15 3.34 15 3 15 C2.01 10.05 1.02 5.1 0 0 Z " fill="#F4E9D3" transform="translate(181,90)"/>
<path d="M0 0 C0.33 0 0.66 0 1 0 C1 1.65 1 3.3 1 5 C-2.3 5.33 -5.6 5.66 -9 6 C-8.67 4.68 -8.34 3.36 -8 2 C-7.67 2.99 -7.34 3.98 -7 5 C-6.5875 4.505 -6.175 4.01 -5.75 3.5 C-4 2 -4 2 0 2 C0 1.34 0 0.68 0 0 Z " fill="#915D19" transform="translate(182,70)"/>
<path d="M0 0 C0.33 0.99 0.66 1.98 1 3 C-0.40445835 5.2636564 -2.1967913 7.0208685 -4 9 C-4.33 8.34 -4.66 7.68 -5 7 C-6.65 7 -8.3 7 -10 7 C-7.96153279 5.64102186 -5.91973686 4.28702633 -3.875 2.9375 C-1.21312042 1.27685736 -1.21312042 1.27685736 0 0 Z " fill="#FEEFDD" transform="translate(220,59)"/>
<path d="M0 0 C0.66 0 1.32 0 2 0 C1.34 5.28 0.68 10.56 0 16 C-0.33 16 -0.66 16 -1 16 C-1.85330338 10.16524985 -2.48351814 5.55139349 0 0 Z " fill="#FEF2E2" transform="translate(159,24)"/>
<path d="M0 0 C7.26 0.33 14.52 0.66 22 1 C22 1.33 22 1.66 22 2 C15.4 2 8.8 2 2 2 C1.67 2.99 1.34 3.98 1 5 C0.67 3.35 0.34 1.7 0 0 Z " fill="#E9955F" transform="translate(114,25)"/>
<path d="M0 0 C3.21746321 2.65790439 3.08233008 3.41165038 4 8 C0.7 6.02 -2.6 4.04 -6 2 C-4.68 1.67 -3.36 1.34 -2 1 C-1.67 1.33 -1.34 1.66 -1 2 C-0.67 1.34 -0.34 0.68 0 0 Z " fill="#EB9D6E" transform="translate(155,72)"/>
<path d="M0 0 C-3.96 3.465 -3.96 3.465 -8 7 C-8.66 5.68 -9.32 4.36 -10 3 C-3.375 -1.125 -3.375 -1.125 0 0 Z " fill="#FEEED8" transform="translate(182,2)"/>
<path d="M0 0 C0.33 0 0.66 0 1 0 C1 4.62 1 9.24 1 14 C0.67 14 0.34 14 0 14 C-0.33 12.02 -0.66 10.04 -1 8 C-1.99 8.495 -1.99 8.495 -3 9 C-2.01 6.03 -1.02 3.06 0 0 Z " fill="#CCCCCC" transform="translate(96,208)"/>
<path d="M0 0 C2.64 0 5.28 0 8 0 C8 0.66 8 1.32 8 2 C8.66 2.33 9.32 2.66 10 3 C2.25 3.125 2.25 3.125 0 2 C0 1.34 0 0.68 0 0 Z " fill="#946936" transform="translate(136,165)"/>
<path d="M0 0 C0.66 0.66 1.32 1.32 2 2 C-0.31 4.31 -2.62 6.62 -5 9 C-5.66 8.67 -6.32 8.34 -7 8 C-7 6 -7 6 -5.6875 4.375 C-4 3 -4 3 -1 3 C-0.67 2.01 -0.34 1.02 0 0 Z " fill="#F3EAD1" transform="translate(193,85)"/>
<path d="M0 0 C-2.54712074 2.00130916 -4.9527375 3.85727656 -8 5 C-10.25 4.625 -10.25 4.625 -12 4 C-11.67 3.01 -11.34 2.02 -11 1 C-11 1.66 -11 2.32 -11 3 C-10.113125 2.505 -9.22625 2.01 -8.3125 1.5 C-5.12413762 0.05621326 -3.41812454 -0.30159922 0 0 Z " fill="#FCDFBC" transform="translate(242,63)"/>
<path d="M0 0 C1.98 0 3.96 0 6 0 C6 0.99 6 1.98 6 3 C4.35 3.33 2.7 3.66 1 4 C0.67 2.68 0.34 1.36 0 0 Z " fill="#FAF4E7" transform="translate(182,284)"/>
<path d="M0 0 C1.41623216 -0.05447047 2.83308191 -0.09300508 4.25 -0.125 C5.03890625 -0.14820313 5.8278125 -0.17140625 6.640625 -0.1953125 C9.20731941 0.0171622 10.7916067 0.71345895 13 2 C9.30992118 3.18082522 5.85119054 3.28527337 2 3 C1.34 2.01 0.68 1.02 0 0 Z " fill="#86591A" transform="translate(196,165)"/>
<path d="M0 0 C0.33 0.66 0.66 1.32 1 2 C-0.59025991 5.10100683 -2.2996944 7.76931277 -5 10 C-5.66 10 -6.32 10 -7 10 C-5.33248852 6.05860922 -2.77289351 3.2107188 0 0 Z " fill="#F7EED7" transform="translate(202,92)"/>
<path d="M0 0 C0.33 1.32 0.66 2.64 1 4 C-3.455 6.97 -3.455 6.97 -8 10 C-8.66 9.67 -9.32 9.34 -10 9 C-9.36191406 8.51789063 -8.72382813 8.03578125 -8.06640625 7.5390625 C-7.24011719 6.90742187 -6.41382813 6.27578125 -5.5625 5.625 C-4.73878906 4.99851562 -3.91507812 4.37203125 -3.06640625 3.7265625 C-0.91471908 2.16246096 -0.91471908 2.16246096 0 0 Z " fill="#FDE8D1" transform="translate(263,60)"/>
<path d="M0 0 C0.33 0 0.66 0 1 0 C1 1.65 1 3.3 1 5 C1.66 5.33 2.32 5.66 3 6 C1.35 7.65 -0.3 9.3 -2 11 C-2.19622241 6.78121808 -1.80230168 3.82989106 0 0 Z " fill="#ECA277" transform="translate(198,48)"/>
<path d="M0 0 C1.10370043 3.3111013 0.92673641 5.24748949 0.5625 8.6875 C0.40974609 10.17830078 0.40974609 10.17830078 0.25390625 11.69921875 C0.12822266 12.83810547 0.12822266 12.83810547 0 14 C-0.33 14 -0.66 14 -1 14 C-1 12.02 -1 10.04 -1 8 C-1.66 8 -2.32 8 -3 8 C-1.125 1.125 -1.125 1.125 0 0 Z " fill="#FFE9C7" transform="translate(171,28)"/>
<path d="M0 0 C0.99 0 1.98 0 3 0 C6 6.625 6 6.625 6 10 C5.34 10 4.68 10 4 10 C2.68 6.7 1.36 3.4 0 0 Z " fill="#917545" transform="translate(293,274)"/>
<path d="M0 0 C0.66 0.33 1.32 0.66 2 1 C1.21625 1.61875 0.4325 2.2375 -0.375 2.875 C-2.96837647 4.89858661 -2.96837647 4.89858661 -5 7 C-5.99 6.34 -6.98 5.68 -8 5 C-5.31158141 2.74754119 -3.35358125 1.11786042 0 0 Z " fill="#FEE5C5" transform="translate(208,49)"/>
<path d="M0 0 C0.66 0 1.32 0 2 0 C2.125 5.75 2.125 5.75 1 8 C0.34 8 -0.32 8 -1 8 C-1.04241723 5.66705225 -1.04092937 3.33297433 -1 1 C-0.67 0.67 -0.34 0.34 0 0 Z " fill="#FDFCF1" transform="translate(122,274)"/>
<path d="M0 0 C2.31 1.98 4.62 3.96 7 6 C6.67 7.32 6.34 8.64 6 10 C2.46413986 6.82679218 0.41421969 4.83256305 0 0 Z " fill="#886437" transform="translate(85,274)"/>
<path d="M0 0 C0 3.3 0 6.6 0 10 C-0.66 10 -1.32 10 -2 10 C-2.33 7.03 -2.66 4.06 -3 1 C-1 0 -1 0 0 0 Z " fill="#FEFDF5" transform="translate(187,93)"/>
<path d="M0 0 C3.09592835 3.5087188 4.74194623 6.49197399 6 11 C5.01 10.67 4.02 10.34 3 10 C3 8.68 3 7.36 3 6 C2.34 6 1.68 6 1 6 C0.67 4.02 0.34 2.04 0 0 Z " fill="#F1E3CA" transform="translate(156,62)"/>
<path d="M0 0 C0 1.65 0 3.3 0 5 C-1.32 5.33 -2.64 5.66 -4 6 C-4.33 4.68 -4.66 3.36 -5 2 C-1.125 0 -1.125 0 0 0 Z " fill="#E9DDC8" transform="translate(62,277)"/>
<path d="M0 0 C1.65 0 3.3 0 5 0 C5.33 1.65 5.66 3.3 6 5 C5.34 4.01 4.68 3.02 4 2 C3.34 2 2.68 2 2 2 C1.34 3.32 0.68 4.64 0 6 C-1.125 2.25 -1.125 2.25 0 0 Z " fill="#F8F3E5" transform="translate(149,279)"/>
<path d="M0 0 C1.65 0 3.3 0 5 0 C4.67 1.98 4.34 3.96 4 6 C3.01 6 2.02 6 1 6 C0.67 4.02 0.34 2.04 0 0 Z " fill="#EBE3C7" transform="translate(182,273)"/>
<path d="M0 0 C2.97 0.495 2.97 0.495 6 1 C5.34 2.65 4.68 4.3 4 6 C3.01 5.67 2.02 5.34 1 5 C0.67 3.35 0.34 1.7 0 0 Z " fill="#F4A070" transform="translate(174,56)"/>
<path d="M0 0 C0.66 0.66 1.32 1.32 2 2 C1.625 4.125 1.625 4.125 1 6 C-0.32 6 -1.64 6 -3 6 C-3 5.34 -3 4.68 -3 4 C-2.34 4 -1.68 4 -1 4 C-0.67 2.68 -0.34 1.36 0 0 Z " fill="#D0C0AC" transform="translate(296,282)"/>
<path d="M0 0 C0.99 0 1.98 0 3 0 C3 1.32 3 2.64 3 4 C1.35 4.66 -0.3 5.32 -2 6 C-2 5.01 -2 4.02 -2 3 C-1.34 3 -0.68 3 0 3 C0 2.01 0 1.02 0 0 Z " fill="#FBF5E1" transform="translate(266,274)"/>
<path d="M0 0 C0.66 0 1.32 0 2 0 C2 0.99 2 1.98 2 3 C3.32 2.67 4.64 2.34 6 2 C5.67 2.99 5.34 3.98 5 5 C3.35 4.67 1.7 4.34 0 4 C0 2.68 0 1.36 0 0 Z " fill="#A9906D" transform="translate(56,280)"/>
<path d="M0 0 C0.66 0 1.32 0 2 0 C2 0.99 2 1.98 2 3 C3.32 2.67 4.64 2.34 6 2 C5.67 2.99 5.34 3.98 5 5 C3.35 4.67 1.7 4.34 0 4 C0 2.68 0 1.36 0 0 Z " fill="#AB916C" transform="translate(198,280)"/>
<path d="M0 0 C0.99 0.33 1.98 0.66 3 1 C2.67 1.99 2.34 2.98 2 4 C-0.5625 5.1875 -0.5625 5.1875 -3 6 C-3 5.01 -3 4.02 -3 3 C-2.01 3 -1.02 3 0 3 C0 2.01 0 1.02 0 0 Z " fill="#FCF8E5" transform="translate(59,274)"/>
<path d="M0 0 C2.31 0.33 4.62 0.66 7 1 C7 1.99 7 2.98 7 4 C4.97954558 3.39816251 2.97888961 2.72693904 1 2 C0.67 1.34 0.34 0.68 0 0 Z " fill="#FFFCF8" transform="translate(137,71)"/>
<path d="M0 0 C2.64 0 5.28 0 8 0 C7.01 1.485 7.01 1.485 6 3 C3.03 2.505 3.03 2.505 0 2 C0 1.34 0 0.68 0 0 Z " fill="#FEE3C6" transform="translate(130,69)"/>
</svg>
