<?xml version="1.0" encoding="UTF-8"?>
<svg version="1.1" xmlns="http://www.w3.org/2000/svg" width="139" height="138">
<path d="M0 0 C2.27088731 -0.00965924 4.54084893 -0.04075583 6.81152344 -0.07226562 C25.25091501 -0.206564 42.17364617 2.53715166 55.98339844 15.83789062 C68.47626166 29.55773148 70.56404744 49.61482347 70.48339844 67.42773438 C70.47602661 69.34875977 70.47602661 69.34875977 70.46850586 71.30859375 C70.26780781 87.53734657 68.11905729 106.34390691 57.17089844 119.24023438 C42.99546655 132.97831174 23.09746396 137.82823268 3.8449707 137.58325195 C-0.47104537 137.45713029 -4.57568541 137.01774055 -8.82910156 136.24023438 C-10.71448422 136.02123533 -12.5999365 135.80265401 -14.48657227 135.59472656 C-28.80020779 133.97658857 -43.90226411 130.62972179 -53.82910156 119.24023438 C-62.20628854 107.87119491 -66.5844796 93.31540585 -66.82910156 79.24023438 C-66.85617188 77.94601563 -66.88324219 76.65179688 -66.91113281 75.31835938 C-67.16956333 56.34434733 -66.90674213 35.57606167 -55.82910156 19.24023438 C-54.83910156 18.91023438 -53.84910156 18.58023437 -52.82910156 18.24023438 C-51.6202806 16.24006971 -51.6202806 16.24006971 -50.82910156 14.24023438 C-50.16910156 14.24023438 -49.50910156 14.24023438 -48.82910156 14.24023438 C-48.49910156 13.25023437 -48.16910156 12.26023437 -47.82910156 11.24023438 C-45.50721785 9.79453319 -43.24643663 8.49426029 -40.82910156 7.24023438 C-40.12785156 6.82773438 -39.42660156 6.41523437 -38.70410156 5.99023438 C-36.33482519 5.04252383 -34.35603783 5.09984903 -31.82910156 5.24023438 C-31.82910156 4.58023437 -31.82910156 3.92023437 -31.82910156 3.24023438 C-21.48087966 -0.13418581 -10.78613604 0.02759779 0 0 Z " fill="#FDFCFB" transform="translate(67.8291015625,0.759765625)"/>
<path d="M0 0 C5.04456605 1.2229251 7.33745503 4.44268232 10.44921875 8.3203125 C10.96097656 8.87460937 11.47273438 9.42890625 12 10 C14.12364481 10.22609337 14.12364481 10.22609337 15.625 8.5 C16.305625 7.7575 16.305625 7.7575 17 7 C16.85691406 7.99966797 16.85691406 7.99966797 16.7109375 9.01953125 C15.97631675 15.12713402 16.22877933 20.14599194 17.51953125 26.140625 C18.34849449 31.07396718 18.15661901 36.01429469 18 41 C19.12277344 40.98839844 20.24554688 40.97679687 21.40234375 40.96484375 C29.01306916 40.91048749 36.4500307 40.90182265 44 42 C44 42.33 44 42.66 44 43 C40.06736543 43.7308779 36.34744725 44.12604156 32.34936523 44.12939453 C31.26481552 44.13254669 30.18026581 44.13569885 29.06285095 44.13894653 C27.90644608 44.1369223 26.7500412 44.13489807 25.55859375 44.1328125 C24.35815933 44.13376923 23.15772491 44.13472595 21.9209137 44.13571167 C19.38843737 44.13639089 16.85595929 44.13455461 14.32348633 44.13037109 C10.44803969 44.12501457 6.57270869 44.13032728 2.69726562 44.13671875 C0.23437474 44.13605801 -2.22851606 44.13477695 -4.69140625 44.1328125 C-5.84983536 44.13483673 -7.00826447 44.13686096 -8.20179749 44.13894653 C-9.28319504 44.13579437 -10.36459259 44.13264221 -11.47875977 44.12939453 C-12.42662857 44.12859894 -13.37449738 44.12780334 -14.35108948 44.12698364 C-16.99422812 44.00027669 -19.42357329 43.58813131 -22 43 C-22 42.67 -22 42.34 -22 42 C-12.76 42 -3.52 42 6 42 C6.33 39.36 6.66 36.72 7 34 C7.26490234 32.9790625 7.26490234 32.9790625 7.53515625 31.9375 C9.85231298 22.27943498 8.31420513 13.88888443 3.5078125 5.390625 C2.36414387 3.57734727 1.18917606 1.78376409 0 0 Z " fill="#99641E" transform="translate(61,28)"/>
<path d="M0 0 C3.56957381 2.0119416 6.44330057 4.20583725 7.68359375 8.203125 C7.78800781 8.79609375 7.89242187 9.3890625 8 10 C7.236875 9.67 6.47375 9.34 5.6875 9 C3.00930865 7.82563314 3.00930865 7.82563314 0 8 C0.55429687 8.38671875 1.10859375 8.7734375 1.6796875 9.171875 C2.40414062 9.69265625 3.12859375 10.2134375 3.875 10.75 C4.59429687 11.26046875 5.31359375 11.7709375 6.0546875 12.296875 C8.08570565 14.07503547 8.97855012 15.52701607 10 18 C-4.89185085 19.06612114 -4.89185085 19.06612114 -9.734375 16.6171875 C-11.70034568 14.85695794 -13.34705878 13.05339606 -15 11 C-15.99108094 10.05307613 -16.99002005 9.11423985 -18 8.1875 C-20 6 -20 6 -20 4 C-13.52102281 0.91214704 -7.23692696 -1.62165253 0 0 Z " fill="#FC9352" transform="translate(58,31)"/>
<path d="M0 0 C2.475 0.495 2.475 0.495 5 1 C6.58203125 3.87109375 6.58203125 3.87109375 7.8125 7.4375 C8.23144531 8.61183594 8.65039062 9.78617188 9.08203125 10.99609375 C10 14 10 14 10 16 C10.66 16 11.32 16 12 16 C12.12890625 15.28328125 12.2578125 14.5665625 12.390625 13.828125 C12.99390605 11.0282822 13.76768574 8.43928658 14.75 5.75 C15.05421875 4.87859375 15.3584375 4.0071875 15.671875 3.109375 C16.11015625 2.41328125 16.5484375 1.7171875 17 1 C18.65 0.67 20.3 0.34 22 0 C22 7.26 22 14.52 22 22 C21.01 22 20.02 22 19 22 C18.67 17.38 18.34 12.76 18 8 C17.2575 9.959375 16.515 11.91875 15.75 13.9375 C14.484375 17.27734375 14.484375 17.27734375 13 20 C11.68 20.33 10.36 20.66 9 21 C7.35 16.71 5.7 12.42 4 8 C3.67 12.62 3.34 17.24 3 22 C2.01 22 1.02 22 0 22 C0 14.74 0 7.48 0 0 Z " fill="#1D1D1D" transform="translate(20,94)"/>
<path d="M0 0 C0.66 0 1.32 0 2 0 C4.23168345 9.72376359 5.48641602 16.44456033 0.09375 25.3125 C-0.2671875 25.869375 -0.628125 26.42625 -1 27 C-3.52480693 24.47519307 -3.55738633 22.86176966 -4.125 19.375 C-4.29257813 18.37210938 -4.46015625 17.36921875 -4.6328125 16.3359375 C-4.75398438 15.56507812 -4.87515625 14.79421875 -5 14 C-5.33 16.97 -5.66 19.94 -6 23 C-8 22 -8 22 -9 19 C-9.73348594 14.77412079 -9.90126417 11.38728622 -7.5078125 7.703125 C-5.74679054 5.70096725 -3.93887497 3.82921009 -2 2 C-1.34 1.34 -0.68 0.68 0 0 Z " fill="#FB9352" transform="translate(76,7)"/>
<path d="M0 0 C1.87988281 0.25439453 1.87988281 0.25439453 4 1 C5.09667969 2.71826172 5.09667969 2.71826172 5.921875 4.9296875 C6.22480469 5.72503906 6.52773437 6.52039063 6.83984375 7.33984375 C7.14019531 8.17644531 7.44054687 9.01304688 7.75 9.875 C8.22373047 11.11830078 8.22373047 11.11830078 8.70703125 12.38671875 C11 18.5310809 11 18.5310809 11 22 C10.01 22 9.02 22 8 22 C7.67 20.02 7.34 18.04 7 16 C5.3739713 16.06000106 3.74898451 16.1487885 2.125 16.25 C1.22007813 16.29640625 0.31515625 16.3428125 -0.6171875 16.390625 C-3.17110544 16.75611148 -3.17110544 16.75611148 -4.3203125 19.046875 C-4.54460937 19.69140625 -4.76890625 20.3359375 -5 21 C-5.66 21 -6.32 21 -7 21 C-5.62820313 13.51747162 -3.07836721 6.94395046 0 0 Z " fill="#1C1C1C" transform="translate(72,94)"/>
<path d="M0 0 C0.99 0 1.98 0 3 0 C3.33 2.64 3.66 5.28 4 8 C6.64 5.36 9.28 2.72 12 0 C12.99 0.33 13.98 0.66 15 1 C12.69 3.64 10.38 6.28 8 9 C8.94875 10.4025 9.8975 11.805 10.875 13.25 C12.79975 16.09528261 14.53181332 18.89257577 16 22 C13.27425729 21.62669176 12.19177915 21.20805399 10.296875 19.15234375 C9.78640625 18.42144531 9.2759375 17.69054687 8.75 16.9375 C8.22921875 16.20402344 7.7084375 15.47054687 7.171875 14.71484375 C6.78515625 14.14894531 6.3984375 13.58304688 6 13 C5.01 13.33 4.02 13.66 3 14 C2.67 16.31 2.34 18.62 2 21 C1.34 21 0.68 21 0 21 C0 14.07 0 7.14 0 0 Z " fill="#2E2E2E" transform="translate(106,94)"/>
<path d="M0 0 C0.99386719 0.02707031 1.98773438 0.05414062 3.01171875 0.08203125 C4.15060547 0.13423828 4.15060547 0.13423828 5.3125 0.1875 C1.54669153 9.95869466 1.54669153 9.95869466 -3.1875 12.5625 C-5.6875 13.1875 -5.6875 13.1875 -9.6875 13.1875 C-9.3575 12.383125 -9.0275 11.57875 -8.6875 10.75 C-7.62690959 8.49068875 -7.62690959 8.49068875 -7.6875 7.1875 C-8.6775 7.6825 -8.6775 7.6825 -9.6875 8.1875 C-9.33790195 5.6004744 -9.03649627 3.67425795 -7.5 1.53125 C-4.95311125 -0.35696062 -3.12946351 -0.11045165 0 0 Z " fill="#FB9756" transform="translate(92.6875,23.8125)"/>
<path d="M0 0 C0.70454819 -0.00095673 1.40909637 -0.00191345 2.13499451 -0.00289917 C3.61140025 -0.00357413 5.08780909 -0.00176809 6.56420898 0.00244141 C8.80654638 0.0078076 11.04868426 0.00246889 13.29101562 -0.00390625 C14.73567752 -0.0032455 16.18033929 -0.00196441 17.625 0 C19.56741577 0.00169189 19.56741577 0.00169189 21.54907227 0.00341797 C25.21343919 0.1316696 28.63339393 0.54532946 32.24609375 1.1328125 C29.35675524 2.77343768 27.28315033 3.38438804 23.96826172 3.39160156 C23.13414764 3.39790588 22.30003357 3.40421021 21.44064331 3.41070557 C20.54886383 3.4066571 19.65708435 3.40260864 18.73828125 3.3984375 C17.8164505 3.40035095 16.89461975 3.4022644 15.94485474 3.40423584 C13.9998548 3.40559499 12.05484571 3.40191744 10.10986328 3.39355469 C7.12511986 3.38282697 4.14097501 3.39347166 1.15625 3.40625 C-0.73307425 3.40492884 -2.62239813 3.40236734 -4.51171875 3.3984375 C-5.40754669 3.40248596 -6.30337463 3.40653442 -7.22634888 3.41070557 C-8.05415863 3.40440125 -8.88196838 3.39809692 -9.73486328 3.39160156 C-10.46448273 3.39001038 -11.19410217 3.38841919 -11.9458313 3.38677979 C-13.75390625 3.1328125 -13.75390625 3.1328125 -15.75390625 1.1328125 C-10.45664138 0.3918797 -5.36062241 0.00466518 0 0 Z " fill="#A9804D" transform="translate(63.75390625,73.8671875)"/>
<path d="M0 0 C1.32 0 2.64 0 4 0 C4 7.26 4 14.52 4 22 C3.01 22 2.02 22 1 22 C0.67 17.38 0.34 12.76 0 8 C-1.32 11.3 -2.64 14.6 -4 18 C-5.32 17.34 -6.64 16.68 -8 16 C-7.34 16 -6.68 16 -6 16 C-5.87625 15.28328125 -5.7525 14.5665625 -5.625 13.828125 C-4.99457989 10.97547399 -4.10066194 8.45309623 -3 5.75 C-2.649375 4.87859375 -2.29875 4.0071875 -1.9375 3.109375 C-1 1 -1 1 0 0 Z " fill="#1F1F1F" transform="translate(38,94)"/>
<path d="M0 0 C2.875 2.375 2.875 2.375 5 5 C5 5.66 5 6.32 5 7 C1.16730743 8.80362003 -1.76849335 9.44078194 -6 9 C-8.875 7.5 -8.875 7.5 -11 6 C-10.505 5.54625 -10.01 5.0925 -9.5 4.625 C-7.77390663 3.12364481 -7.77390663 3.12364481 -8 1 C-5.11138291 -0.44430855 -3.20352299 -0.37688506 0 0 Z " fill="#F99A5E" transform="translate(101,43)"/>
<path d="M0 0 C1.60332791 -0.08121924 3.20784026 -0.13929134 4.8125 -0.1875 C6.15248047 -0.23970703 6.15248047 -0.23970703 7.51953125 -0.29296875 C10 0 10 0 11.84375 1.28125 C13 3 13 3 12.6875 6.6875 C12.460625 7.780625 12.23375 8.87375 12 10 C5.92706524 9.7618457 5.92706524 9.7618457 3.421875 7.703125 C1.12792857 5.04003777 0 3.57389046 0 0 Z " fill="#F99C60" transform="translate(47,18)"/>
<path d="M0 0 C1.42020201 0.22906484 2.83845901 0.47251758 4.25 0.75 C4.25 3.75 4.25 3.75 1.75 6.4375 C-2.02871634 9.45685707 -5.05677326 9.15458851 -9.75 8.75 C-9.09 7.76 -8.43 6.77 -7.75 5.75 C-8.08 5.09 -8.41 4.43 -8.75 3.75 C-6.12072175 -0.02244271 -4.38091087 -0.51743042 0 0 Z " fill="#FA9555" transform="translate(106.75,31.25)"/>
<path d="M0 0 C4.39134713 5.38938056 5.29575888 9.94930653 5.125 16.8125 C5.11597656 17.50537109 5.10695313 18.19824219 5.09765625 18.91210938 C5.07426157 20.60822395 5.03839641 22.30415871 5 24 C4.67 24 4.34 24 4 24 C4 20.7 4 17.4 4 14 C3.01 13.67 2.02 13.34 1 13 C-0.11375 11.8553125 -0.11375 11.8553125 -1.25 10.6875 C-4.33882304 7.66887748 -7.20220196 6.01059896 -11 4 C-8.5332355 3.11663163 -7.36140628 2.8687594 -4.859375 3.77734375 C-4.16328125 4.16019531 -3.4671875 4.54304688 -2.75 4.9375 C-2.04359375 5.31777344 -1.3371875 5.69804688 -0.609375 6.08984375 C-0.07828125 6.39019531 0.4528125 6.69054688 1 7 C0.67 4.69 0.34 2.38 0 0 Z " fill="#F6E9DA" transform="translate(65,34)"/>
<path d="M0 0 C-0.85464844 0.77085938 -1.70929688 1.54171875 -2.58984375 2.3359375 C-3.70587076 3.34880235 -4.82174844 4.36183173 -5.9375 5.375 C-6.78344727 6.13683594 -6.78344727 6.13683594 -7.64648438 6.9140625 C-10.73384712 9.62684887 -10.73384712 9.62684887 -13 13 C-13.66 13 -14.32 13 -15 13 C-15.5625 9.875 -15.5625 9.875 -15 6 C-10.93973877 2.22378997 -5.56762152 -1.85587384 0 0 Z " fill="#945E17" transform="translate(94,41)"/>
<path d="M0 0 C0.185625 0.9590625 0.185625 0.9590625 0.375 1.9375 C0.684375 2.9584375 0.684375 2.9584375 1 4 C1.66 4.33 2.32 4.66 3 5 C3 8.63 3 12.26 3 16 C2.67 16 2.34 16 2 16 C1.67 13.36 1.34 10.72 1 8 C0.67 10.97 0.34 13.94 0 17 C-2 16 -2 16 -3 13 C-3.4068872 8.75115862 -3.69189114 5.18198069 -1.5 1.4375 C-0.7575 0.7259375 -0.7575 0.7259375 0 0 Z " fill="#F7985C" transform="translate(70,13)"/>
<path d="M0 0 C0.66 0 1.32 0 2 0 C2 3.63 2 7.26 2 11 C2.66 11 3.32 11 4 11 C3.34 14.3 2.68 17.6 2 21 C1.34 21 0.68 21 0 21 C0 14.07 0 7.14 0 0 Z " fill="#000000" transform="translate(106,94)"/>
<path d="M0 0 C1.32 0.33 2.64 0.66 4 1 C3.42655063 3.86724686 3.1385485 4.8614515 1 7 C0.11221308 8.96488831 0.11221308 8.96488831 -0.625 11.125 C-0.88539062 11.84945312 -1.14578125 12.57390625 -1.4140625 13.3203125 C-1.60742188 13.87460938 -1.80078125 14.42890625 -2 15 C-3.32 14.34 -4.64 13.68 -6 13 C-5.34 13 -4.68 13 -4 13 C-3.896875 12.34 -3.79375 11.68 -3.6875 11 C-2.80786436 7.16158991 -1.43030104 3.66903309 0 0 Z " fill="#262626" transform="translate(36,97)"/>
<path d="M0 0 C0.66 0.33 1.32 0.66 2 1 C2.6328125 3.06640625 2.6328125 3.06640625 3.125 5.5625 C3.29257813 6.38878906 3.46015625 7.21507813 3.6328125 8.06640625 C3.75398438 8.70449219 3.87515625 9.34257813 4 10 C1.69 10 -0.62 10 -3 10 C-2.01 6.7 -1.02 3.4 0 0 Z " fill="#D4D4D4" transform="translate(73,98)"/>
<path d="M0 0 C1.125 3.75 1.125 3.75 0 6 C2.31 6 4.62 6 7 6 C7 6.33 7 6.66 7 7 C4.36 7 1.72 7 -1 7 C-1.66 8.98 -2.32 10.96 -3 13 C-3.66 13 -4.32 13 -5 13 C-3.25740319 3.40546697 -3.25740319 3.40546697 0 0 Z " fill="#121212" transform="translate(70,102)"/>
<path d="M0 0 C4.8 3.44615385 4.8 3.44615385 5.8125 6.25 C5.874375 6.8275 5.93625 7.405 6 8 C4.948125 7.5359375 4.948125 7.5359375 3.875 7.0625 C0.88664759 5.95810889 -1.83649941 5.35150007 -5 5 C-5.99 5.495 -5.99 5.495 -7 6 C-7 5.01 -7 4.02 -7 3 C-4.69 2.01 -2.38 1.02 0 0 Z " fill="#F7985C" transform="translate(60,33)"/>
<path d="M0 0 C0.99386719 0.02707031 1.98773438 0.05414062 3.01171875 0.08203125 C4.15060547 0.13423828 4.15060547 0.13423828 5.3125 0.1875 C4.9825 0.8475 4.6525 1.5075 4.3125 2.1875 C1.3425 2.1875 -1.6275 2.1875 -4.6875 2.1875 C-3.6975 3.6725 -3.6975 3.6725 -2.6875 5.1875 C-3.6775 6.5075 -4.6675 7.8275 -5.6875 9.1875 C-6.3475 8.8575 -7.0075 8.5275 -7.6875 8.1875 C-7.6875 7.8575 -7.6875 7.5275 -7.6875 7.1875 C-8.6775 7.6825 -8.6775 7.6825 -9.6875 8.1875 C-9.33790195 5.6004744 -9.03649627 3.67425795 -7.5 1.53125 C-4.95311125 -0.35696062 -3.12946351 -0.11045165 0 0 Z " fill="#F6A570" transform="translate(92.6875,23.8125)"/>
<path d="M0 0 C2.44839588 3.67259383 4 6.54648201 4 11 C3.01 11 2.02 11 1 11 C0.67 9.02 0.34 7.04 0 5 C-3.3 5 -6.6 5 -10 5 C-10 4.67 -10 4.34 -10 4 C-7.36 4 -4.72 4 -2 4 C-1.67 3.01 -1.34 2.02 -1 1 C-0.67 0.67 -0.34 0.34 0 0 Z " fill="#272727" transform="translate(79,105)"/>
<path d="M0 0 C0.99 0.33 1.98 0.66 3 1 C1.92807816 2.3218362 0.84197305 3.63217927 -0.25 4.9375 C-0.85328125 5.66839844 -1.4565625 6.39929688 -2.078125 7.15234375 C-4.10741134 9.10326334 -5.254407 9.61731779 -8 10 C-6.34908222 5.70761377 -3.26245434 3.1206085 0 0 Z " fill="#1B1B1B" transform="translate(118,94)"/>
<path d="M0 0 C3.3 0.33 6.6 0.66 10 1 C6.72220127 4.27779873 6.1639187 4.40494034 1.8125 4.6875 C0.91144531 4.75324219 0.01039062 4.81898437 -0.91796875 4.88671875 C-1.60503906 4.92410156 -2.29210937 4.96148437 -3 5 C-2.505 4.360625 -2.01 3.72125 -1.5 3.0625 C0.09802862 1.29025661 0.09802862 1.29025661 0 0 Z " fill="#F4E7D9" transform="translate(93,39)"/>
<path d="M0 0 C0.33 0 0.66 0 1 0 C1 5.28 1 10.56 1 16 C0.67 16 0.34 16 0 16 C-0.06058594 15.38511719 -0.12117188 14.77023438 -0.18359375 14.13671875 C-0.26738281 13.32847656 -0.35117187 12.52023438 -0.4375 11.6875 C-0.51871094 10.88699219 -0.59992187 10.08648437 -0.68359375 9.26171875 C-0.95265693 6.83912821 -0.95265693 6.83912821 -2 4 C-1.0625 1.8125 -1.0625 1.8125 0 0 Z " fill="#D8D8D8" transform="translate(38,100)"/>
<path d="M0 0 C1.65 0.33 3.3 0.66 5 1 C4.01 1.495 4.01 1.495 3 2 C3 3.32 3 4.64 3 6 C1.35 6.33 -0.3 6.66 -2 7 C-1.34 6.01 -0.68 5.02 0 4 C-0.33 3.34 -0.66 2.68 -1 2 C-0.67 1.34 -0.34 0.68 0 0 Z " fill="#F6A771" transform="translate(99,33)"/>
<path d="M0 0 C2.475 0.99 2.475 0.99 5 2 C4.67 3.32 4.34 4.64 4 6 C3.01 6 2.02 6 1 6 C0.67 4.02 0.34 2.04 0 0 Z " fill="#0D0D0D" transform="translate(28,109)"/>
<path d="M0 0 C0.66 0.33 1.32 0.66 2 1 C1.34 3.31 0.68 5.62 0 8 C-0.66 8 -1.32 8 -2 8 C-2 5.69 -2 3.38 -2 1 C-1.34 0.67 -0.68 0.34 0 0 Z " fill="#996926" transform="translate(81,46)"/>
<path d="M0 0 C2.15377564 2.62198774 3.40072174 4.64404172 4 8 C3.01 8.33 2.02 8.66 1 9 C0.08941469 5.92677456 -0.08886184 3.19902639 0 0 Z " fill="#EEDFCF" transform="translate(65,34)"/>
<path d="M0 0 C-1.98 1.32 -3.96 2.64 -6 4 C-6 3.34 -6 2.68 -6 2 C-6.66 1.67 -7.32 1.34 -8 1 C-3.375 -1.125 -3.375 -1.125 0 0 Z " fill="#986728" transform="translate(94,41)"/>
</svg>
